{"accessors":[{"bufferView":0,"componentType":5125,"count":6663,"max":[2550.0],"min":[0.0],"type":"SCALAR"},{"bufferView":1,"componentType":5126,"count":2551,"max":[0.14399999380111695,0.5443086624145508,0.06300000101327896],"min":[-0.14380866289138795,0.3158974349498749,-0.06300000101327896],"type":"VEC3"},{"bufferView":2,"componentType":5126,"count":2551,"max":[1.0,1.0,1.0],"min":[-1.0,-1.0,-1.0],"type":"VEC3"},{"bufferView":3,"componentType":5126,"count":2551,"max":[1.0,1.0],"min":[0.0,0.0],"type":"VEC2"},{"bufferView":4,"componentType":5125,"count":74520,"max":[27188.0],"min":[0.0],"type":"SCALAR"},{"bufferView":5,"componentType":5126,"count":27189,"max":[0.4167506992816925,0.6441092491149902,0.027000000700354577],"min":[-0.4167506992816925,-2.0880369655804594e-17,-0.05400000140070915],"type":"VEC3"},{"bufferView":6,"componentType":5126,"count":27189,"max":[1.0,1.0,1.0],"min":[-1.0,-1.0,-1.0],"type":"VEC3"},{"bufferView":7,"componentType":5126,"count":27189,"max":[0.9983818531036377,1.0],"min":[0.0016181543469429017,0.0],"type":"VEC2"},{"bufferView":8,"componentType":5125,"count":4428,"max":[1905.0],"min":[0.0],"type":"SCALAR"},{"bufferView":9,"componentType":5126,"count":1906,"max":[0.4211922287940979,0.4699195921421051,0.05400000140070915],"min":[-0.4211922287940979,0.2068752944469452,0.027000000700354577],"type":"VEC3"},{"bufferView":10,"componentType":5126,"count":1906,"max":[0.9999977350234985,0.9998723268508911,1.0],"min":[-0.9999977350234985,-0.9996842741966248,-1.0],"type":"VEC3"},{"bufferView":11,"componentType":5126,"count":1906,"max":[1.0,1.0],"min":[0.0,0.0],"type":"VEC2"},{"bufferView":12,"componentType":5125,"count":1200,"max":[437.0],"min":[0.0],"type":"SCALAR"},{"bufferView":13,"componentType":5126,"count":438,"max":[0.4077586531639099,0.45176494121551516,0.06300000101327896],"min":[0.36280226707458498,0.4068085551261902,-0.06300000101327896],"type":"VEC3"},{"bufferView":14,"componentType":5126,"count":438,"max":[0.9990308880805969,0.9990308880805969,1.0],"min":[-0.9990308880805969,-0.9990308880805969,-1.0],"type":"VEC3"},{"bufferView":15,"componentType":5126,"count":438,"max":[1.0,1.0],"min":[0.0,0.0],"type":"VEC2"},{"bufferView":16,"componentType":5125,"count":1200,"max":[437.0],"min":[0.0],"type":"SCALAR"},{"bufferView":17,"componentType":5126,"count":438,"max":[0.33344388008117678,0.6352896690368652,0.06300000101327896],"min":[0.2884874939918518,0.5903332829475403,-0.06300000101327896],"type":"VEC3"},{"bufferView":18,"componentType":5126,"count":438,"max":[0.9990308880805969,0.9990308880805969,1.0],"min":[-0.9990308880805969,-0.9990308880805969,-1.0],"type":"VEC3"},{"bufferView":19,"componentType":5126,"count":438,"max":[1.0,1.0],"min":[0.0,0.0],"type":"VEC2"},{"bufferView":20,"componentType":5125,"count":1200,"max":[437.0],"min":[0.0],"type":"SCALAR"},{"bufferView":21,"componentType":5126,"count":438,"max":[1.1754943508222876e-38,0.6352896690368652,0.06300000101327896],"min":[-0.33344388008117678,0.5903332829475403,-0.06300000101327896],"type":"VEC3"},{"bufferView":22,"componentType":5126,"count":438,"max":[0.9990308880805969,0.9990308880805969,1.0],"min":[-0.9990308880805969,-0.9990308880805969,-1.0],"type":"VEC3"},{"bufferView":23,"componentType":5126,"count":438,"max":[1.0,1.0],"min":[0.0,0.0],"type":"VEC2"},{"bufferView":24,"componentType":5125,"count":1200,"max":[437.0],"min":[0.0],"type":"SCALAR"},{"bufferView":25,"componentType":5126,"count":438,"max":[1.1754943508222876e-38,0.45176494121551516,0.06300000101327896],"min":[-0.4077586531639099,0.4068085551261902,-0.06300000101327896],"type":"VEC3"},{"bufferView":26,"componentType":5126,"count":438,"max":[0.9990308880805969,0.9990308880805969,1.0],"min":[-0.9990308880805969,-0.9990308880805969,-1.0],"type":"VEC3"},{"bufferView":27,"componentType":5126,"count":438,"max":[1.0,1.0],"min":[0.0,0.0],"type":"VEC2"},{"bufferView":28,"componentType":5125,"count":1248,"max":[513.0],"min":[0.0],"type":"SCALAR"},{"bufferView":29,"componentType":5126,"count":514,"max":[1.1754943508222876e-38,0.9199007153511047,1.1754943508222876e-38],"min":[-0.43006202578544619,0.3842979073524475,-0.027000000700354577],"type":"VEC3"},{"bufferView":30,"componentType":5126,"count":514,"max":[0.9999856948852539,0.9999858140945435,1.0],"min":[-0.9999858140945435,-0.9997522830963135,-1.0],"type":"VEC3"},{"bufferView":31,"componentType":5126,"count":514,"max":[1.0,1.0],"min":[0.0,0.0],"type":"VEC2"},{"bufferView":32,"componentType":5125,"count":1248,"max":[513.0],"min":[0.0],"type":"SCALAR"},{"bufferView":33,"componentType":5126,"count":514,"max":[0.43006202578544619,0.9199007153511047,1.734723475976807e-17],"min":[0.2615092992782593,0.3842979073524475,-0.027000000700354577],"type":"VEC3"},{"bufferView":34,"componentType":5126,"count":514,"max":[0.9999858140945435,0.9999858140945435,1.0],"min":[-0.9999856948852539,-0.9997522830963135,-1.0],"type":"VEC3"},{"bufferView":35,"componentType":5126,"count":514,"max":[1.0,1.0],"min":[0.0,0.0],"type":"VEC2"},{"bufferView":36,"componentType":5125,"count":1248,"max":[513.0],"min":[0.0],"type":"SCALAR"},{"bufferView":37,"componentType":5126,"count":514,"max":[0.43006202578544619,0.9199007153511047,0.027000000700354577],"min":[0.2615092992782593,0.3842979073524475,-2.693430823434533e-23],"type":"VEC3"},{"bufferView":38,"componentType":5126,"count":514,"max":[0.9999858140945435,0.9999858140945435,1.0],"min":[-0.9999856948852539,-0.9997522830963135,-1.0],"type":"VEC3"},{"bufferView":39,"componentType":5126,"count":514,"max":[1.0,1.0],"min":[0.0,0.0],"type":"VEC2"},{"bufferView":40,"componentType":5125,"count":12612,"max":[4483.0],"min":[0.0],"type":"SCALAR"},{"bufferView":41,"componentType":5126,"count":4484,"max":[0.3423692286014557,0.644309937953949,0.05400000140070915],"min":[0.01575489155948162,0.4905015230178833,0.027000000700354577],"type":"VEC3"},{"bufferView":42,"componentType":5126,"count":4484,"max":[0.9975542426109314,0.9999996423721314,1.0],"min":[-0.9975542426109314,-0.9999996423721314,-1.0],"type":"VEC3"},{"bufferView":43,"componentType":5126,"count":4484,"max":[0.9958793520927429,1.0],"min":[0.004120656289160252,0.0],"type":"VEC2"},{"bufferView":44,"componentType":5125,"count":12702,"max":[4512.0],"min":[0.0],"type":"SCALAR"},{"bufferView":45,"componentType":5126,"count":4513,"max":[1.1754943508222876e-38,0.644309937953949,0.05400000140070915],"min":[-0.3423692286014557,0.4905015230178833,0.027000000700354577],"type":"VEC3"},{"bufferView":46,"componentType":5126,"count":4513,"max":[0.9975542426109314,0.9999996423721314,1.0],"min":[-0.9975542426109314,-0.9999996423721314,-1.0],"type":"VEC3"},{"bufferView":47,"componentType":5126,"count":4513,"max":[0.9958793520927429,1.0],"min":[0.004120656289160252,0.0],"type":"VEC2"},{"bufferView":48,"componentType":5125,"count":1248,"max":[513.0],"min":[0.0],"type":"SCALAR"},{"bufferView":49,"componentType":5126,"count":514,"max":[1.1754943508222876e-38,0.9199007153511047,0.027000000700354577],"min":[-0.43006202578544619,0.3842979073524475,-1.1102230246251566e-16],"type":"VEC3"},{"bufferView":50,"componentType":5126,"count":514,"max":[0.9999856948852539,0.9999858140945435,1.0],"min":[-0.9999858140945435,-0.9997522830963135,-1.0],"type":"VEC3"},{"bufferView":51,"componentType":5126,"count":514,"max":[1.0,1.0],"min":[0.0,0.0],"type":"VEC2"},{"bufferView":52,"componentType":5125,"count":10188,"max":[3723.0],"min":[0.0],"type":"SCALAR"},{"bufferView":53,"componentType":5126,"count":3724,"max":[0.0034000000450760128,0.01606191135942936,0.19156000018119813],"min":[-0.11819999665021897,-0.09241747111082077,0.1666399985551834],"type":"VEC3"},{"bufferView":54,"componentType":5126,"count":3724,"max":[1.0,1.0,1.0],"min":[-1.0,-1.0,-1.0],"type":"VEC3"},{"bufferView":55,"componentType":5126,"count":3724,"max":[1.0,1.0],"min":[0.0,0.0],"type":"VEC2"},{"bufferView":56,"componentType":5125,"count":26532,"max":[9247.0],"min":[0.0],"type":"SCALAR"},{"bufferView":57,"componentType":5126,"count":9248,"max":[0.09059999883174896,0.00142222223803401,0.18051999807357789],"min":[-0.12800000607967378,-0.07777778059244156,0.0],"type":"VEC3"},{"bufferView":58,"componentType":5126,"count":9248,"max":[1.0,1.0,1.0],"min":[-1.0,-1.0,-1.0],"type":"VEC3"},{"bufferView":59,"componentType":5126,"count":9248,"max":[0.9997031688690186,0.9998278617858887],"min":[0.0002968345652334392,0.00017207860946655273],"type":"VEC2"},{"bufferView":60,"componentType":5125,"count":576,"max":[253.0],"min":[0.0],"type":"SCALAR"},{"bufferView":61,"componentType":5126,"count":254,"max":[0.18314999341964723,0.009999999776482582,0.27764999866485598],"min":[-0.20714999735355378,0.0,-0.27764999866485598],"type":"VEC3"},{"bufferView":62,"componentType":5126,"count":254,"max":[1.0,1.0,1.0],"min":[-1.0,-1.0,-1.0],"type":"VEC3"},{"bufferView":63,"componentType":5126,"count":254,"max":[1.0,1.0],"min":[0.0,0.0],"type":"VEC2"}],"asset":{"generator":"SimLab GLTF","version":"2.0"},"bufferViews":[{"buffer":0,"byteLength":26652,"target":34963},{"buffer":0,"byteLength":30612,"byteOffset":26652,"byteStride":12,"target":34962},{"buffer":0,"byteLength":30612,"byteOffset":57264,"byteStride":12,"target":34962},{"buffer":0,"byteLength":20408,"byteOffset":87876,"byteStride":8,"target":34962},{"buffer":0,"byteLength":298080,"byteOffset":108284,"target":34963},{"buffer":0,"byteLength":326268,"byteOffset":406364,"byteStride":12,"target":34962},{"buffer":0,"byteLength":326268,"byteOffset":732632,"byteStride":12,"target":34962},{"buffer":0,"byteLength":217512,"byteOffset":1058900,"byteStride":8,"target":34962},{"buffer":0,"byteLength":17712,"byteOffset":1276412,"target":34963},{"buffer":0,"byteLength":22872,"byteOffset":1294124,"byteStride":12,"target":34962},{"buffer":0,"byteLength":22872,"byteOffset":1316996,"byteStride":12,"target":34962},{"buffer":0,"byteLength":15248,"byteOffset":1339868,"byteStride":8,"target":34962},{"buffer":0,"byteLength":4800,"byteOffset":1355116,"target":34963},{"buffer":0,"byteLength":5256,"byteOffset":1359916,"byteStride":12,"target":34962},{"buffer":0,"byteLength":5256,"byteOffset":1365172,"byteStride":12,"target":34962},{"buffer":0,"byteLength":3504,"byteOffset":1370428,"byteStride":8,"target":34962},{"buffer":0,"byteLength":4800,"byteOffset":1373932,"target":34963},{"buffer":0,"byteLength":5256,"byteOffset":1378732,"byteStride":12,"target":34962},{"buffer":0,"byteLength":5256,"byteOffset":1383988,"byteStride":12,"target":34962},{"buffer":0,"byteLength":3504,"byteOffset":1389244,"byteStride":8,"target":34962},{"buffer":0,"byteLength":4800,"byteOffset":1392748,"target":34963},{"buffer":0,"byteLength":5256,"byteOffset":1397548,"byteStride":12,"target":34962},{"buffer":0,"byteLength":5256,"byteOffset":1402804,"byteStride":12,"target":34962},{"buffer":0,"byteLength":3504,"byteOffset":1408060,"byteStride":8,"target":34962},{"buffer":0,"byteLength":4800,"byteOffset":1411564,"target":34963},{"buffer":0,"byteLength":5256,"byteOffset":1416364,"byteStride":12,"target":34962},{"buffer":0,"byteLength":5256,"byteOffset":1421620,"byteStride":12,"target":34962},{"buffer":0,"byteLength":3504,"byteOffset":1426876,"byteStride":8,"target":34962},{"buffer":0,"byteLength":4992,"byteOffset":1430380,"target":34963},{"buffer":0,"byteLength":6168,"byteOffset":1435372,"byteStride":12,"target":34962},{"buffer":0,"byteLength":6168,"byteOffset":1441540,"byteStride":12,"target":34962},{"buffer":0,"byteLength":4112,"byteOffset":1447708,"byteStride":8,"target":34962},{"buffer":0,"byteLength":4992,"byteOffset":1451820,"target":34963},{"buffer":0,"byteLength":6168,"byteOffset":1456812,"byteStride":12,"target":34962},{"buffer":0,"byteLength":6168,"byteOffset":1462980,"byteStride":12,"target":34962},{"buffer":0,"byteLength":4112,"byteOffset":1469148,"byteStride":8,"target":34962},{"buffer":0,"byteLength":4992,"byteOffset":1473260,"target":34963},{"buffer":0,"byteLength":6168,"byteOffset":1478252,"byteStride":12,"target":34962},{"buffer":0,"byteLength":6168,"byteOffset":1484420,"byteStride":12,"target":34962},{"buffer":0,"byteLength":4112,"byteOffset":1490588,"byteStride":8,"target":34962},{"buffer":0,"byteLength":50448,"byteOffset":1494700,"target":34963},{"buffer":0,"byteLength":53808,"byteOffset":1545148,"byteStride":12,"target":34962},{"buffer":0,"byteLength":53808,"byteOffset":1598956,"byteStride":12,"target":34962},{"buffer":0,"byteLength":35872,"byteOffset":1652764,"byteStride":8,"target":34962},{"buffer":0,"byteLength":50808,"byteOffset":1688636,"target":34963},{"buffer":0,"byteLength":54156,"byteOffset":1739444,"byteStride":12,"target":34962},{"buffer":0,"byteLength":54156,"byteOffset":1793600,"byteStride":12,"target":34962},{"buffer":0,"byteLength":36104,"byteOffset":1847756,"byteStride":8,"target":34962},{"buffer":0,"byteLength":4992,"byteOffset":1883860,"target":34963},{"buffer":0,"byteLength":6168,"byteOffset":1888852,"byteStride":12,"target":34962},{"buffer":0,"byteLength":6168,"byteOffset":1895020,"byteStride":12,"target":34962},{"buffer":0,"byteLength":4112,"byteOffset":1901188,"byteStride":8,"target":34962},{"buffer":0,"byteLength":40752,"byteOffset":1905300,"target":34963},{"buffer":0,"byteLength":44688,"byteOffset":1946052,"byteStride":12,"target":34962},{"buffer":0,"byteLength":44688,"byteOffset":1990740,"byteStride":12,"target":34962},{"buffer":0,"byteLength":29792,"byteOffset":2035428,"byteStride":8,"target":34962},{"buffer":0,"byteLength":106128,"byteOffset":2065220,"target":34963},{"buffer":0,"byteLength":110976,"byteOffset":2171348,"byteStride":12,"target":34962},{"buffer":0,"byteLength":110976,"byteOffset":2282324,"byteStride":12,"target":34962},{"buffer":0,"byteLength":73984,"byteOffset":2393300,"byteStride":8,"target":34962},{"buffer":0,"byteLength":2304,"byteOffset":2467284,"target":34963},{"buffer":0,"byteLength":3048,"byteOffset":2469588,"byteStride":12,"target":34962},{"buffer":0,"byteLength":3048,"byteOffset":2472636,"byteStride":12,"target":34962},{"buffer":0,"byteLength":2032,"byteOffset":2475684,"byteStride":8,"target":34962}],"buffers":[{"byteLength":2477716,"uri":"gripper.bin"}],"materials":[{"alphaMode":"MASK","doubleSided":true,"pbrMetallicRoughness":{"baseColorFactor":[0.8941176533699036,0.8941176533699036,0.8941176533699036,1.0],"metallicFactor":0.0}},{"alphaMode":"MASK","doubleSided":true,"pbrMetallicRoughness":{"baseColorFactor":[0.48588237166404726,0.06862745434045792,0.06862745434045792,1.0],"metallicFactor":0.0}},{"alphaMode":"MASK","doubleSided":true,"pbrMetallicRoughness":{"baseColorFactor":[0.20039217174053193,0.46392157673835757,0.23058824241161347,1.0],"metallicFactor":0.0}},{"alphaMode":"MASK","doubleSided":true,"pbrMetallicRoughness":{"baseColorFactor":[0.09803921729326248,0.09803921729326248,0.09803921729326248,1.0],"metallicFactor":0.0}},{"alphaMode":"MASK","doubleSided":true,"pbrMetallicRoughness":{"baseColorFactor":[0.8941176533699036,0.8941176533699036,0.8941176533699036,1.0],"metallicFactor":0.0}},{"alphaMode":"MASK","doubleSided":true,"pbrMetallicRoughness":{"baseColorFactor":[0.48588237166404726,0.06862745434045792,0.06862745434045792,1.0],"metallicFactor":0.0}}],"meshes":[{"primitives":[{"attributes":{"NORMAL":2,"POSITION":1,"TEXCOORD_0":3},"indices":0,"material":0,"mode":4}]},{"primitives":[{"attributes":{"NORMAL":6,"POSITION":5,"TEXCOORD_0":7},"indices":4,"material":1,"mode":4}]},{"primitives":[{"attributes":{"NORMAL":10,"POSITION":9,"TEXCOORD_0":11},"indices":8,"material":2,"mode":4}]},{"primitives":[{"attributes":{"NORMAL":14,"POSITION":13,"TEXCOORD_0":15},"indices":12,"material":0,"mode":4}]},{"primitives":[{"attributes":{"NORMAL":18,"POSITION":17,"TEXCOORD_0":19},"indices":16,"material":0,"mode":4}]},{"primitives":[{"attributes":{"NORMAL":22,"POSITION":21,"TEXCOORD_0":23},"indices":20,"material":0,"mode":4}]},{"primitives":[{"attributes":{"NORMAL":26,"POSITION":25,"TEXCOORD_0":27},"indices":24,"material":0,"mode":4}]},{"primitives":[{"attributes":{"NORMAL":30,"POSITION":29,"TEXCOORD_0":31},"indices":28,"material":3,"mode":4}]},{"primitives":[{"attributes":{"NORMAL":34,"POSITION":33,"TEXCOORD_0":35},"indices":32,"material":3,"mode":4}]},{"primitives":[{"attributes":{"NORMAL":38,"POSITION":37,"TEXCOORD_0":39},"indices":36,"material":3,"mode":4}]},{"primitives":[{"attributes":{"NORMAL":42,"POSITION":41,"TEXCOORD_0":43},"indices":40,"material":3,"mode":4}]},{"primitives":[{"attributes":{"NORMAL":46,"POSITION":45,"TEXCOORD_0":47},"indices":44,"material":3,"mode":4}]},{"primitives":[{"attributes":{"NORMAL":50,"POSITION":49,"TEXCOORD_0":51},"indices":48,"material":3,"mode":4}]},{"primitives":[{"attributes":{"NORMAL":54,"POSITION":53,"TEXCOORD_0":55},"indices":52,"material":4,"mode":4}]},{"primitives":[{"attributes":{"NORMAL":58,"POSITION":57,"TEXCOORD_0":59},"indices":56,"material":4,"mode":4}]},{"primitives":[{"attributes":{"NORMAL":62,"POSITION":61,"TEXCOORD_0":63},"indices":60,"material":5,"mode":4}]}],"nodes":[{"children":[1,2,17,20],"matrix":[1.0,0.0,0.0,0.0,0.0,4.4896593387466768e-11,-1.0,0.0,0.0,1.0,4.4896593387466768e-11,0.0,0.0,0.0,0.0,1.0]},{"name":"Camera~1","rotation":[-0.7071067690849304,0.0,0.0,-0.7071067690849304],"translation":[0.0,-3.7697229385375978,0.45995035767555239]},{"name":"final arm-1","children":[3,7,8,9,10,11,12,13,14,15,16],"rotation":[-0.7071067690849304,0.0,0.0,-0.7071067690849304]},{"name":"Body_11","children":[4,5,6],"rotation":[0.0,0.0,0.0,-1.0]},{"name":"3DGeom~763","mesh":0,"rotation":[0.0,0.0,0.0,-1.0]},{"name":"3DGeom~764","mesh":1,"rotation":[0.0,0.0,0.0,-1.0]},{"name":"3DGeom~765","mesh":2,"rotation":[0.0,0.0,0.0,-1.0]},{"name":"Body_1","mesh":3,"rotation":[0.0,0.0,0.0,-1.0]},{"name":"Body_2","mesh":4,"rotation":[0.0,0.0,0.0,-1.0]},{"name":"Body_3","mesh":5,"rotation":[0.0,0.0,0.0,-1.0]},{"name":"Body_4","mesh":6,"rotation":[0.0,0.0,0.0,-1.0]},{"name":"Body_5","mesh":7,"rotation":[0.0,0.0,0.0,-1.0]},{"name":"Body_6","mesh":8,"rotation":[0.0,0.0,0.0,-1.0]},{"name":"Body_7","mesh":9,"rotation":[0.0,0.0,0.0,-1.0]},{"name":"Body_8","mesh":10,"rotation":[0.0,0.0,0.0,-1.0]},{"name":"Body_9","mesh":11,"rotation":[0.0,0.0,0.0,-1.0]},{"name":"Body_10","mesh":12,"rotation":[0.0,0.0,0.0,-1.0]},{"name":"MG995 star head-1","children":[18,19],"rotation":[0.7070733308792114,0.0068788654170930389,0.0068788654170930389,-0.7070733308792114],"translation":[-0.06336809694766998,-0.24323999881744386,0.3013436198234558]},{"name":"Body_1","mesh":13,"rotation":[0.0,0.0,0.0,-1.0]},{"name":"Body_2","mesh":14,"rotation":[0.0,0.0,0.0,-1.0]},{"name":"arm bottom plate-1","children":[21],"rotation":[1.0,-1.3877787807814458e-17,9.685892062204992e-18,-2.9845245601174678e-17],"translation":[0.0013500000350177289,-0.13604000210762025,0.280349999666214]},{"name":"Body_1","mesh":15,"rotation":[0.0,0.0,0.0,-1.0]}],"samplers":[{"wrapS":10497,"wrapT":10497}],"scene":0,"scenes":[{"nodes":[0]}]}